<svg width="100" height="100" viewBox="0 0 100 100" fill="none" xmlns="http://www.w3.org/2000/svg">
<g clip-path="url(#clip0_1698_275876)">
<path d="M-26 50C-26 19.0472 -26 3.57073 -18.396 -7.44556C-15.4394 -11.729 -11.729 -15.4394 -7.44556 -18.396C3.57073 -26 19.0472 -26 50 -26C80.9528 -26 96.4293 -26 107.446 -18.396C111.729 -15.4394 115.439 -11.729 118.396 -7.44556C126 3.57073 126 19.0472 126 50C126 80.9528 126 96.4293 118.396 107.446C115.439 111.729 111.729 115.439 107.446 118.396C96.4293 126 80.9528 126 50 126C19.0472 126 3.57073 126 -7.44556 118.396C-11.729 115.439 -15.4394 111.729 -18.396 107.446C-26 96.4293 -26 80.9528 -26 50Z" fill="#F90043"/>
<mask id="mask0_1698_275876" style="mask-type:alpha" maskUnits="userSpaceOnUse" x="-26" y="-26" width="152" height="152">
<path d="M-26 50C-26 19.0472 -26 3.57073 -18.396 -7.44556C-15.4394 -11.729 -11.729 -15.4394 -7.44556 -18.396C3.57073 -26 19.0472 -26 50 -26C80.9528 -26 96.4293 -26 107.446 -18.396C111.729 -15.4394 115.439 -11.729 118.396 -7.44556C126 3.57073 126 19.0472 126 50C126 80.9528 126 96.4293 118.396 107.446C115.439 111.729 111.729 115.439 107.446 118.396C96.4293 126 80.9528 126 50 126C19.0472 126 3.57073 126 -7.44556 118.396C-11.729 115.439 -15.4394 111.729 -18.396 107.446C-26 96.4293 -26 80.9528 -26 50Z" fill="#F90043"/>
</mask>
<g mask="url(#mask0_1698_275876)">
<path opacity="0.54" fill-rule="evenodd" clip-rule="evenodd" d="M720.364 460.032L445.754 352.852L-29.8509 296.2L-151.111 119.89L-157.86 117.255L-157.802 117.107C-155.603 118.079 -153.373 119.007 -151.111 119.89C96.9268 226.613 26.3849 -152.551 263.548 -59.9836C457.799 15.8345 420.4 340.781 720.364 460.032Z" fill="url(#paint0_linear_1698_275876)"/>
<path d="M23.0434 34.3476V65.9694H43.4255V60.3226H29.748V34.3476H23.0434Z" fill="white"/>
<path d="M50.3528 34.3476V65.9694H62.0189C64.3879 65.9694 66.5334 65.6532 68.4107 64.9304C70.288 64.2076 71.8971 63.2138 73.2381 61.8585C74.579 60.5033 75.5623 58.8771 76.2775 56.8894C76.9927 54.9469 77.3503 52.6882 77.3503 50.1585C77.3503 47.6288 76.9927 45.4152 76.2775 43.4276C75.5623 41.4851 74.579 39.8588 73.2381 38.5036C71.8971 37.1484 70.288 36.1546 68.4107 35.4318C66.5334 34.709 64.3879 34.3476 62.0189 34.3476H50.3528ZM70.4221 50.1585C70.4221 51.6944 70.2433 53.0948 69.8857 54.3597C69.5281 55.6245 69.0365 56.6635 68.3213 57.567C67.6062 58.4705 66.7569 59.1933 65.6841 59.645C64.6114 60.1419 63.3152 60.3678 61.8401 60.3678H57.1022V39.9492H61.8401C63.3152 39.9492 64.6114 40.2202 65.6841 40.672C66.7569 41.1689 67.6062 41.8465 68.3213 42.75C69.0365 43.6535 69.5281 44.7376 69.8857 46.0025C70.2433 47.2674 70.4221 48.6226 70.4221 50.1585Z" fill="white"/>
</g>
</g>
<defs>
<linearGradient id="paint0_linear_1698_275876" x1="169.096" y1="2.69496" x2="-172.052" y2="334.938" gradientUnits="userSpaceOnUse">
<stop stop-color="#893636"/>
<stop offset="1" stop-color="#893636" stop-opacity="0"/>
</linearGradient>
<clipPath id="clip0_1698_275876">
<rect width="100" height="100" rx="16" fill="white"/>
</clipPath>
</defs>
</svg>
