<svg width="24" height="24" viewBox="0 0 24 24" fill="none" xmlns="http://www.w3.org/2000/svg">
<g clip-path="url(#clip0_2403_87)">
<path d="M23.9999 12.2756C23.9999 11.4599 23.9324 10.6397 23.7885 9.83722H12.2406V14.4582H18.8535C18.5791 15.9486 17.6974 17.2669 16.4063 18.1047V21.1031H20.3515C22.6683 19.013 23.9999 15.9265 23.9999 12.2756Z" fill="#4285F4"/>
<path d="M12.2407 24C15.5426 24 18.3273 22.9374 20.3561 21.1031L16.4109 18.1047C15.3132 18.8367 13.8961 19.2511 12.2452 19.2511C9.05116 19.2511 6.343 17.1391 5.37131 14.2995H1.30008V17.3904C3.37843 21.4426 7.61161 24 12.2407 24Z" fill="#34A853"/>
<path d="M5.36684 14.2995C4.854 12.8091 4.854 11.1953 5.36684 9.70496V6.61401H1.30012C-0.436342 10.0048 -0.436342 13.9996 1.30012 17.3904L5.36684 14.2995Z" fill="#FBBC04"/>
<path d="M12.2407 4.74884C13.9861 4.72238 15.6731 5.36614 16.9372 6.54784L20.4326 3.12179C18.2193 1.08468 15.2817 -0.03529 12.2407 -1.53086e-05C7.61161 -1.53086e-05 3.37843 2.5574 1.30008 6.61398L5.36681 9.70493C6.33401 6.86091 9.04666 4.74884 12.2407 4.74884Z" fill="#EA4335"/>
</g>
<defs>
<clipPath id="clip0_2403_87">
<rect width="24" height="24" fill="white"/>
</clipPath>
</defs>
</svg>
